<svg preserveAspectRatio="none" overflow="visible" style="display: block;" width="12" height="12" viewBox="0 0 12 12" fill="none" xmlns="http://www.w3.org/2000/svg">
<g id="user-check">
<path id="Vector" d="M8.00056 5.5L9.00064 6.5L11.0008 4.5M8.00056 10.5V9.5C8.00056 8.96957 7.78983 8.46086 7.41473 8.08579C7.03962 7.71071 6.53088 7.5 6.0004 7.5H3.00016C2.46968 7.5 1.96094 7.71071 1.58583 8.08579C1.21073 8.46086 1 8.96957 1 9.5V10.5M6.50044 3.5C6.50044 4.60457 5.60494 5.5 4.50028 5.5C3.39562 5.5 2.50012 4.60457 2.50012 3.5C2.50012 2.39543 3.39562 1.5 4.50028 1.5C5.60494 1.5 6.50044 2.39543 6.50044 3.5Z" stroke="#FFB08A" stroke-linecap="round"/>
</g>
</svg>
