<svg preserveAspectRatio="none" overflow="visible" style="display: block;" width="14" height="14" viewBox="0 0 14 14" fill="none" xmlns="http://www.w3.org/2000/svg">
<g id="Icon">
<path id="Vector" d="M10.5 10.5C11.4665 10.5 12.25 9.7165 12.25 8.75C12.25 7.7835 11.4665 7 10.5 7C9.5335 7 8.75 7.7835 8.75 8.75C8.75 9.7165 9.5335 10.5 10.5 10.5Z" stroke="#FFB08A" stroke-width="1.16667" stroke-linecap="round" stroke-linejoin="round"/>
<path id="Vector_2" d="M5.25033 6.41667C6.53899 6.41667 7.58366 5.372 7.58366 4.08333C7.58366 2.79467 6.53899 1.75 5.25033 1.75C3.96166 1.75 2.91699 2.79467 2.91699 4.08333C2.91699 5.372 3.96166 6.41667 5.25033 6.41667Z" stroke="#FFB08A" stroke-width="1.16667" stroke-linecap="round" stroke-linejoin="round"/>
<path id="Vector_3" d="M5.83366 8.75H3.50033C2.88149 8.75 2.28799 8.99583 1.85041 9.43342C1.41282 9.871 1.16699 10.4645 1.16699 11.0833V12.25" stroke="#FFB08A" stroke-width="1.16667" stroke-linecap="round" stroke-linejoin="round"/>
<path id="Vector_4" d="M12.6588 9.5666L12.1338 9.3916" stroke="#FFB08A" stroke-width="1.16667" stroke-linecap="round" stroke-linejoin="round"/>
<path id="Vector_5" d="M8.86667 8.10833L8.34167 7.93333" stroke="#FFB08A" stroke-width="1.16667" stroke-linecap="round" stroke-linejoin="round"/>
<path id="Vector_6" d="M9.68359 10.9083L9.85859 10.3833" stroke="#FFB08A" stroke-width="1.16667" stroke-linecap="round" stroke-linejoin="round"/>
<path id="Vector_7" d="M11.1417 7.11667L11.3167 6.59167" stroke="#FFB08A" stroke-width="1.16667" stroke-linecap="round" stroke-linejoin="round"/>
<path id="Vector_8" d="M11.4333 10.9083L11.2 10.325" stroke="#FFB08A" stroke-width="1.16667" stroke-linecap="round" stroke-linejoin="round"/>
<path id="Vector_9" d="M9.79974 7.17513L9.56641 6.5918" stroke="#FFB08A" stroke-width="1.16667" stroke-linecap="round" stroke-linejoin="round"/>
<path id="Vector_10" d="M8.34167 9.68333L8.925 9.45" stroke="#FFB08A" stroke-width="1.16667" stroke-linecap="round" stroke-linejoin="round"/>
<path id="Vector_11" d="M12.075 8.05L12.6583 7.81667" stroke="#FFB08A" stroke-width="1.16667" stroke-linecap="round" stroke-linejoin="round"/>
</g>
</svg>
