<svg preserveAspectRatio="none" overflow="visible" style="display: block;" width="20" height="20" viewBox="0 0 20 20" fill="none" xmlns="http://www.w3.org/2000/svg">
<g id="Icon" clip-path="url(#clip0_0_18)">
<path id="Vector" d="M15 11.6667L18.3333 15L15 18.3333" stroke="#363A3F" stroke-width="1.66667" stroke-linecap="round" stroke-linejoin="round"/>
<path id="Vector_2" d="M15 1.66667L18.3333 5L15 8.33333" stroke="#363A3F" stroke-width="1.66667" stroke-linecap="round" stroke-linejoin="round"/>
<path id="Vector_3" d="M1.66667 15H3.31083C3.84958 15.0037 4.38118 14.8767 4.86012 14.63C5.33906 14.3833 5.75106 14.0241 6.06083 13.5833L10.6058 6.41667C10.9156 5.97587 11.3276 5.61673 11.8065 5.37001C12.2855 5.12328 12.8171 4.99632 13.3558 5H18.3333" stroke="#363A3F" stroke-width="1.66667" stroke-linecap="round" stroke-linejoin="round"/>
<path id="Vector_4" d="M1.66667 5H3.31C3.93122 4.99568 4.54128 5.16504 5.07136 5.48898C5.60145 5.81292 6.03046 6.27855 6.31 6.83333" stroke="#363A3F" stroke-width="1.66667" stroke-linecap="round" stroke-linejoin="round"/>
<path id="Vector_5" d="M18.3333 15H13.2992C12.753 14.9944 12.2165 14.8547 11.737 14.5932C11.2575 14.3316 10.8496 13.9562 10.5492 13.5L10.25 13.125" stroke="#363A3F" stroke-width="1.66667" stroke-linecap="round" stroke-linejoin="round"/>
</g>
<defs>
<clipPath id="clip0_0_18">
<rect width="20" height="20" fill="white"/>
</clipPath>
</defs>
</svg>
