<svg width="200" height="42" viewBox="0 0 200 42" fill="none" xmlns="http://www.w3.org/2000/svg">
<g clip-path="url(#clip0_1127_715)">
<path d="M81.2914 20.3881C82.95 20.0063 84.2731 19.2677 85.2267 18.1969C86.1957 17.1075 86.6895 15.776 86.6895 14.2397C86.6895 12.1137 85.7329 10.3663 83.8476 9.04724C81.9623 7.72817 79.3689 7.06088 76.1418 7.06088H67.3117C66.765 7.06088 66.4855 7.22848 66.4855 7.56058V7.64127C66.4855 7.86474 66.7246 8.15959 67.2216 8.54444C67.6999 8.91688 67.9453 9.37623 67.9453 9.91006V32.9828C67.9453 33.5135 67.703 33.9729 67.2216 34.3484C66.7277 34.7333 66.4855 35.0157 66.4855 35.2113V35.3323C66.4855 35.6644 66.7619 35.8351 67.3117 35.8351H78.4123C81.6952 35.8351 84.3912 35.1337 86.4224 33.7463C87.4381 33.0542 88.2114 32.2131 88.7208 31.2479C89.2302 30.2826 89.488 29.1653 89.488 27.9269C89.488 25.9095 88.7643 24.2149 87.3356 22.8959C85.9224 21.5923 83.8911 20.7512 81.2945 20.3943L81.2914 20.3881ZM81.6983 18.3552C80.6113 19.2646 79.1639 19.727 77.3935 19.727H73.1819C72.7284 19.727 72.3495 19.5842 72.0575 19.3049C71.7656 19.0256 71.6165 18.6562 71.6165 18.2031L71.6569 10.1087C71.6569 9.23346 72.0606 8.78963 72.8557 8.78963L76.0549 8.74928C78.2818 8.74928 80.0708 9.29243 81.3722 10.3663C82.6736 11.4371 83.332 12.9455 83.332 14.848C83.332 16.2664 82.7823 17.4489 81.6983 18.3583V18.3552ZM71.66 21.4185H76.4245C79.3223 21.4185 81.6176 22.0982 83.2389 23.439C84.8602 24.7798 85.6832 26.4899 85.6832 28.529C85.6832 30.3788 85.0092 31.7879 83.683 32.7252C82.3568 33.6625 80.4715 34.1405 78.083 34.1405H73.3434C72.8371 34.1405 72.424 33.9667 72.1196 33.6191C71.8122 33.2746 71.6569 32.7997 71.6569 32.2131V21.4216L71.66 21.4185Z" fill="#FEFCFB"/>
<path d="M111.034 34.665C110.788 34.5564 110.531 34.4819 110.26 34.4415C109.996 34.4012 109.742 34.2057 109.503 33.8612C109.263 33.5135 109.139 33.0014 109.139 32.331V16.6264C109.139 16.4433 109.083 16.3036 108.971 16.2136C108.801 16.074 108.496 16.0429 108.068 16.1267L104.623 16.7351C104.21 16.8158 104.002 17.0268 104.002 17.3589V17.4799C104.002 17.6755 104.263 17.9703 104.797 18.3831C105.316 18.7835 105.58 19.2677 105.58 19.8294V28.4918C105.58 30.3137 105.083 31.8096 104.104 32.9332C103.126 34.0567 101.896 34.6278 100.449 34.6278C98.9207 34.6278 97.7342 33.9822 96.9174 32.7128C96.1005 31.4403 95.6843 29.6122 95.6843 27.2783L95.7247 16.6326C95.7247 16.4526 95.6688 16.3161 95.5601 16.2261C95.3862 16.0802 95.0662 16.0491 94.6128 16.1329L91.2087 16.7413C90.7956 16.822 90.5875 17.033 90.5875 17.3651V17.4861C90.5875 17.6537 90.8329 17.9362 91.3422 18.349C91.8361 18.7493 92.0846 19.249 92.0846 19.8356V26.9989C92.0846 29.9319 92.7741 32.2286 94.1345 33.8301C95.4949 35.4316 97.3305 36.2448 99.5947 36.2448C101.048 36.2448 102.312 35.9592 103.35 35.3913C104.378 34.8295 105.213 33.9822 105.831 32.8649L105.9 33.0728C105.859 34.0567 106.083 34.8078 106.564 35.3075C107.058 35.8196 107.835 36.0803 108.872 36.0803C110.549 36.0803 111.4 35.7885 111.4 35.2144C111.4 34.9661 111.276 34.783 111.028 34.6743L111.034 34.665Z" fill="#FEFCFB"/>
<path d="M116.143 12.5544C116.926 12.5544 117.572 12.3216 118.056 11.8623C118.544 11.4029 118.789 10.7853 118.789 10.028C118.789 9.27069 118.544 8.64685 118.056 8.17509C117.569 7.70333 116.926 7.46124 116.143 7.46124C115.36 7.46124 114.668 7.70023 114.168 8.17509C113.668 8.64685 113.413 9.27069 113.413 10.028C113.413 10.7853 113.658 11.3998 114.146 11.8623C114.634 12.3216 115.304 12.5544 116.14 12.5544H116.143Z" fill="#FEFCFB"/>
<path d="M118.823 34.2615C118.612 34.156 118.423 33.9884 118.261 33.7618C118.103 33.5353 118.022 33.259 118.022 32.9425V16.7102C118.022 16.3812 117.917 16.1609 117.712 16.0491C117.507 15.9405 117.18 15.9684 116.746 16.1298L113.627 17.6693C113.214 17.8896 113.012 18.0945 113.012 18.29V18.3707C113.012 18.5135 113.251 18.8083 113.745 19.2739C114.227 19.727 114.469 20.2701 114.469 20.8816V32.9456C114.469 33.3459 114.348 33.6749 114.109 33.9263C113.866 34.1808 113.624 34.3981 113.382 34.5719C113.137 34.7488 113.012 34.9381 113.012 35.1306V35.2919C113.012 35.652 113.276 35.8351 113.798 35.8351H118.78C119.355 35.8351 119.647 35.652 119.647 35.2919V35.1306C119.647 34.9661 119.563 34.8047 119.398 34.6526C119.237 34.5036 119.044 34.3733 118.827 34.2646L118.823 34.2615Z" fill="#FEFCFB"/>
<path d="M127.203 34.2832C126.685 33.9232 126.421 33.4856 126.421 32.9797V6.10183C126.421 5.80077 126.309 5.58351 126.088 5.45937C125.868 5.33522 125.551 5.35695 125.141 5.52144L121.979 7.06087C121.597 7.27812 121.405 7.50159 121.405 7.72195V7.80264C121.405 7.97024 121.529 8.15026 121.774 8.34268C122.013 8.52891 122.252 8.7803 122.479 9.08757C122.706 9.39483 122.821 9.77969 122.821 10.2328V32.9828C122.821 33.4887 122.585 33.9263 122.119 34.2863C121.644 34.6526 121.405 34.9474 121.405 35.1678V35.2888C121.405 35.6489 121.669 35.832 122.19 35.832H127.172C127.719 35.832 127.998 35.6489 127.998 35.2888V35.1678C127.998 34.9443 127.737 34.6557 127.203 34.2863V34.2832Z" fill="#FEFCFB"/>
<path d="M148.994 34.3857C148.501 33.9853 148.252 33.5135 148.252 32.9797V6.14219C148.252 5.8132 148.165 5.58352 147.994 5.46559C147.783 5.32282 147.441 5.33833 146.979 5.51835L143.696 6.61084C143.286 6.80327 143.078 7.03915 143.078 7.31227V7.39297C143.078 7.5854 143.224 7.76852 143.509 7.93301C143.789 8.0944 144.075 8.32407 144.357 8.61892C144.637 8.91067 144.78 9.30484 144.78 9.7828V18.5662C143.248 16.8375 141.276 15.9622 138.922 15.9622C136.229 15.9622 133.949 16.9182 132.145 18.799C130.34 20.6798 129.427 23.1224 129.427 26.0554C129.427 28.9884 130.356 31.5117 132.185 33.3925C134.015 35.2764 136.242 36.2293 138.798 36.2293C140.037 36.2293 141.217 35.9623 142.307 35.4378C143.385 34.9195 144.27 34.1622 144.941 33.1845L145.019 35.1616C145.075 35.5992 145.311 35.8227 145.724 35.8227H149.128C149.541 35.8227 149.752 35.6675 149.752 35.3633V35.2423C149.752 35.0747 149.507 34.7923 148.998 34.3795L148.994 34.3857ZM134.617 19.3701C135.704 17.992 137.136 17.2906 138.878 17.2906C140.459 17.2906 141.854 17.8958 143.019 19.0876C144.183 20.2794 144.777 21.5768 144.777 22.9424V26.9896L144.817 29.038H144.777V29.0536C144.777 30.8475 144.239 32.2814 143.18 33.3118C142.121 34.3422 140.931 34.8667 139.646 34.8667C137.661 34.8419 136.018 33.8549 134.757 31.94C133.496 30.0219 132.881 27.6352 132.937 24.845C132.965 22.5917 133.527 20.7512 134.614 19.3701H134.617Z" fill="#FEFCFB"/>
<path d="M166.239 36.4186C164.241 36.4186 162.4 36.0523 160.707 35.3199C159.014 34.5874 157.542 33.5725 156.293 32.2721C155.042 30.9716 154.07 29.4694 153.377 27.7655C152.681 26.0616 152.336 24.2242 152.336 22.2565C152.336 20.2887 152.684 18.4514 153.377 16.7474C154.073 15.0435 155.045 13.5413 156.293 12.2409C157.545 10.9405 159.014 9.92556 160.707 9.19309C162.4 8.46063 164.245 8.09439 166.239 8.09439C168.233 8.09439 170.077 8.46063 171.77 9.19309C173.463 9.92556 174.935 10.9405 176.184 12.2409C177.435 13.5413 178.408 15.0435 179.1 16.7474C179.796 18.4514 180.141 20.2887 180.141 22.2565C180.141 24.2242 179.793 26.0616 179.1 27.7655C178.404 29.4694 177.432 30.9716 176.184 32.2721C174.932 33.5725 173.46 34.5874 171.77 35.3199C170.077 36.0523 168.233 36.4186 166.239 36.4186ZM166.239 33.3521C168.208 33.3521 169.997 32.8866 171.599 31.9524C173.202 31.0182 174.485 29.7115 175.445 28.0324C176.404 26.3533 176.886 24.4291 176.886 22.2596C176.886 20.0901 176.404 18.1317 175.445 16.465C174.485 14.7983 173.202 13.4979 171.599 12.5637C169.994 11.6295 168.208 11.1639 166.239 11.1639C164.269 11.1639 162.511 11.6326 160.896 12.5637C159.278 13.4979 157.992 14.7983 157.033 16.465C156.073 18.1317 155.591 20.0622 155.591 22.2596C155.591 24.457 156.07 26.3564 157.033 28.0324C157.992 29.7115 159.281 31.0182 160.896 31.9524C162.511 32.8866 164.294 33.3521 166.239 33.3521Z" fill="#FEFCFB"/>
<path d="M183.365 35.8133V16.5023H186.433V19.3421H186.585C187.092 18.4079 187.918 17.601 189.067 16.9181C190.216 16.2353 191.474 15.897 192.838 15.897C195.211 15.897 197 16.586 198.199 17.961C199.397 19.3359 199.997 21.1609 199.997 23.4328V35.8133H196.776V23.9232C196.776 22.0547 196.329 20.7357 195.431 19.966C194.534 19.1962 193.378 18.8114 191.965 18.8114C190.903 18.8114 189.968 19.1093 189.16 19.7021C188.353 20.2949 187.719 21.0585 187.266 21.9927C186.812 22.9269 186.582 23.9107 186.582 24.9474V35.8133H183.362H183.365Z" fill="#FEFCFB"/>
<path d="M37.0382 0C34.5907 0 32.2395 0.4221 30.0561 1.19802C30.5872 1.57667 31.0872 2.00498 31.5531 2.47984C32.0842 3.01678 32.5532 3.60027 32.9632 4.2148C34.2708 3.89512 35.6343 3.72442 37.0382 3.72442C46.5144 3.72442 54.2233 11.4277 54.2233 20.894C54.2233 22.5513 53.9872 24.1528 53.5462 25.6705C53.4437 26.0306 53.3257 26.3844 53.2014 26.732C53.071 27.0889 52.9281 27.4427 52.7759 27.7872C52.7728 27.4117 52.7573 27.0393 52.7262 26.673C52.6952 26.313 52.6517 25.9561 52.5927 25.6023C51.5211 19.0473 45.8124 14.0286 38.9514 14.0286H33.8826V10.6084C33.9105 8.71513 33.4415 6.89638 32.5253 5.29488C32.4476 5.15521 32.3638 5.01555 32.2768 4.87898C32.1929 4.74242 32.1029 4.60896 32.0066 4.47551C31.6774 4.00064 31.3046 3.55371 30.8916 3.13161C30.3139 2.54502 29.6771 2.03291 28.9969 1.60771C28.8323 1.50218 28.6677 1.40597 28.5 1.31596C28.3261 1.21664 28.149 1.12664 27.972 1.03973C26.5805 0.372442 25.0493 0.0217258 23.4591 0.0217258H1.05291C0.35097 0.0217258 0 0.226569 0 0.614529V0.673499C0 0.906275 0.329228 1.23837 0.993897 1.66668C1.65546 2.09498 1.98779 2.65985 1.98779 3.36129V38.2404C1.98779 38.9419 1.65546 39.4881 0.993897 39.8761C0.329228 40.2671 0 40.5775 0 40.8103V40.9282C0 41.3193 0.35097 41.5117 1.05291 41.5117L33.572 41.5024C33.6838 41.521 33.7956 41.5396 33.9074 41.5552C34.0441 41.5769 34.1776 41.5955 34.3143 41.6141C35.2057 41.7321 36.1157 41.791 37.0413 41.791C37.4047 41.791 37.7681 41.7817 38.1284 41.7631C38.2743 41.7569 38.4203 41.7476 38.5663 41.7352C38.88 41.7135 39.1875 41.6855 39.495 41.6452C41.6319 41.3969 43.6724 40.8227 45.564 39.9754C46.7256 39.4571 47.8282 38.8363 48.8656 38.1225C49.5489 37.6538 50.2011 37.1448 50.8192 36.6017C55.1892 32.7687 57.9535 27.1479 57.9535 20.894C57.9504 9.37311 48.5705 0 37.0382 0ZM47.3437 33.4453C47.0051 33.9543 46.62 34.4291 46.1945 34.8636C45.5174 35.5651 44.7378 36.1672 43.8774 36.6483C42.4891 37.4273 40.902 37.8866 39.2123 37.9301H39.1968C39.1161 37.9425 39.0322 37.9518 38.9514 37.958C38.7961 37.9766 38.6408 37.9921 38.4856 38.0046C38.3334 38.0201 38.1781 38.0294 38.0197 38.0387C37.6966 38.0573 37.3674 38.0666 37.0382 38.0666C36.1499 38.0666 35.274 37.9984 34.423 37.868C34.2677 37.8432 34.1124 37.8183 33.9571 37.7873C33.2893 37.6694 32.634 37.508 31.9973 37.3124C31.55 37.1759 31.109 37.0207 30.6772 36.8469C24.3412 34.3143 19.8562 28.1193 19.8562 20.894C19.8562 20.146 19.9028 19.4073 19.9991 18.6842C20.0177 18.529 20.0394 18.3738 20.0674 18.2186C20.0891 18.0634 20.1171 17.9082 20.1482 17.753C20.3842 16.4526 20.7724 15.2049 21.2911 14.0286C21.3595 13.8703 21.4309 13.7152 21.5023 13.5631C21.5769 13.4048 21.6545 13.2496 21.7322 13.0975C23.105 10.4159 25.1642 8.14406 27.6738 6.50842C27.6397 6.47117 27.6055 6.43393 27.5682 6.39668C26.5681 5.38178 25.2605 4.78277 23.8504 4.68966C21.1296 6.90879 18.9741 9.79521 17.6417 13.0975C17.5764 13.2496 17.5174 13.4048 17.4584 13.5631C17.3994 13.7152 17.3435 13.8703 17.2907 14.0286C16.8714 15.2235 16.5577 16.4712 16.3651 17.753C16.3403 17.9082 16.3185 18.0634 16.2999 18.2186C16.2813 18.3738 16.2626 18.529 16.2471 18.6842C16.1695 19.4104 16.1291 20.146 16.1291 20.894C16.1291 27.2844 19.0145 33.0138 23.5491 36.8469C23.7355 37.0083 23.925 37.1635 24.1175 37.3124C24.3194 37.4738 24.5244 37.629 24.7325 37.778H5.78945V17.753H15.424C15.6073 16.4712 15.9055 15.2267 16.3061 14.0286H5.78945V3.74614H23.4591C23.487 3.74614 23.5119 3.74614 23.5398 3.74925C23.779 3.74925 24.0119 3.76476 24.2449 3.7927C24.4623 3.81753 24.6797 3.85167 24.8909 3.89822C26.1519 4.17135 27.3073 4.8045 28.2329 5.74491C28.3198 5.83181 28.4006 5.92182 28.4814 6.01183C28.587 6.12977 28.6863 6.25081 28.7795 6.37496C28.8758 6.49911 28.9659 6.62325 29.0528 6.75361C29.7921 7.87093 30.1772 9.18689 30.1555 10.5773V14.0286H22.313C21.7632 15.2018 21.3501 16.4495 21.0955 17.753H38.9514C44.5204 17.753 49.0488 22.2782 49.0488 27.8431C49.0488 29.9133 48.4214 31.8407 47.3437 33.4453Z" fill="#FEFCFB"/>
</g>
<defs>
<clipPath id="clip0_1127_715">
<rect width="200" height="41.791" fill="white"/>
</clipPath>
</defs>
</svg>
